# xmcd CD database file
#
# Track frame offsets:
#	150
#	15035
#	38703
#	52780
#	69997
#	84793
#	100861
#	114775
#	128219
#	141865
#	155790
#	173983
#	193494
#	211288
#	219934
#	240689
#
# Disc length: 3426 seconds
#
# Revision: 2
# Processed by: cddbd v1.4b41PL1 Copyright (c) Steve Scherf et al.
# Submitted via: Feurio! 1.50.2ß - http://www.feurio.com
#
DISCID=cd0d6010
DTITLE=Bode - Walking is Climbing CD 1
DYEAR=1900
DGENRE=
TTITLE0=The secret garden
TTITLE1=Two dreams
TTITLE2=Home is where it's hard
TTITLE3=E.Z. (Where are you now)
TTITLE4=Instant addiction
TTITLE5=Friday night
TTITLE6=She got me moving
TTITLE7=What..if
TTITLE8=Is there....
TTITLE9=More than facts
TTITLE10=The less I love you
TTITLE11=Distant girl
TTITLE12=Ain't got time
TTITLE13=Face the sharks
TTITLE14=More than a lifetime
TTITLE15='Shopping' she said
EXTD=
EXTT0=
EXTT1=
EXTT2=
EXTT3=
EXTT4=
EXTT5=
EXTT6=
EXTT7=
EXTT8=
EXTT9=
EXTT10=
EXTT11=
EXTT12=
EXTT13=
EXTT14=
EXTT15=
PLAYORDER=
